<svg xmlns="http://www.w3.org/2000/svg" xmlns:xlink="http://www.w3.org/1999/xlink" width="1989" zoomAndPan="magnify" viewBox="0 0 1491.75 567.000005" height="756" preserveAspectRatio="xMidYMid meet" version="1.0"><defs><g/><clipPath id="7bfb0102c2"><path d="M 11.402344 134.027344 L 311.414062 134.027344 L 311.414062 434 L 11.402344 434 Z M 11.402344 134.027344 " clip-rule="nonzero"/></clipPath><clipPath id="dbdc4fbd6c"><path d="M 11.402344 229.230469 C 11.402344 225.332031 13.003906 221.730469 15.503906 219.230469 C 18.101562 216.632812 21.601562 215.03125 25.503906 215.03125 C 29.402344 215.03125 33.003906 216.632812 35.503906 219.230469 C 36.503906 220.230469 37.402344 221.332031 38.003906 222.632812 L 69.90625 222.632812 L 69.90625 214.429688 C 69.90625 208.332031 72.304688 202.929688 76.304688 198.929688 C 80.304688 194.929688 85.707031 192.53125 91.804688 192.53125 L 100.003906 192.53125 L 100.003906 160.628906 C 98.707031 160.027344 97.605469 159.128906 96.605469 158.128906 C 94.003906 155.628906 92.40625 152.027344 92.40625 148.128906 C 92.40625 144.230469 94.003906 140.726562 96.605469 138.128906 C 99.105469 135.628906 102.707031 134.027344 106.605469 134.027344 C 110.507812 134.027344 114.007812 135.628906 116.507812 138.128906 C 119.105469 140.726562 120.707031 144.230469 120.707031 148.128906 C 120.707031 152.027344 119.105469 155.628906 116.507812 158.128906 C 115.507812 159.128906 114.40625 160.027344 113.105469 160.628906 L 113.105469 192.53125 L 154.707031 192.53125 L 154.707031 160.628906 C 153.507812 160.027344 152.308594 159.128906 151.308594 158.128906 C 148.808594 155.628906 147.207031 152.027344 147.207031 148.128906 C 147.207031 144.230469 148.808594 140.726562 151.308594 138.128906 C 153.90625 135.628906 157.40625 134.027344 161.308594 134.027344 C 165.207031 134.027344 168.707031 135.628906 171.308594 138.128906 C 173.910156 140.726562 175.410156 144.230469 175.410156 148.128906 C 175.410156 152.027344 173.910156 155.628906 171.308594 158.128906 C 170.308594 159.128906 169.207031 160.027344 167.910156 160.628906 L 167.910156 192.53125 L 209.511719 192.53125 L 209.511719 160.628906 C 208.210938 160.027344 207.109375 159.128906 206.109375 158.128906 C 203.511719 155.628906 202.011719 152.027344 202.011719 148.128906 C 202.011719 144.230469 203.511719 140.726562 206.109375 138.128906 C 208.609375 135.628906 212.210938 134.027344 216.109375 134.027344 C 220.011719 134.027344 223.511719 135.628906 226.109375 138.128906 C 228.609375 140.726562 230.210938 144.230469 230.210938 148.128906 C 230.210938 152.027344 228.609375 155.628906 226.109375 158.128906 C 225.109375 159.128906 223.910156 160.027344 222.609375 160.628906 L 222.609375 192.53125 L 230.910156 192.53125 C 236.910156 192.53125 242.410156 194.929688 246.3125 198.929688 C 250.3125 202.929688 252.8125 208.332031 252.8125 214.429688 L 252.8125 222.632812 L 284.613281 222.632812 C 285.3125 221.332031 286.113281 220.230469 287.113281 219.230469 C 289.714844 216.632812 293.214844 215.03125 297.113281 215.03125 C 301.015625 215.03125 304.515625 216.632812 307.113281 219.230469 C 309.714844 221.730469 311.214844 225.332031 311.214844 229.230469 C 311.214844 233.132812 309.714844 236.632812 307.113281 239.132812 C 304.515625 241.734375 301.015625 243.332031 297.113281 243.332031 C 293.214844 243.332031 289.714844 241.734375 287.113281 239.132812 C 286.113281 238.132812 285.3125 237.03125 284.613281 235.730469 L 252.8125 235.730469 L 252.8125 277.332031 L 284.613281 277.332031 C 285.3125 276.132812 286.113281 274.933594 287.113281 273.933594 C 289.714844 271.433594 293.214844 269.832031 297.113281 269.832031 C 301.015625 269.832031 304.515625 271.433594 307.113281 273.933594 C 309.714844 276.535156 311.214844 280.035156 311.214844 283.933594 C 311.214844 287.835938 309.714844 291.335938 307.113281 293.933594 C 304.515625 296.535156 301.015625 298.035156 297.113281 298.035156 C 293.214844 298.035156 289.714844 296.535156 287.113281 293.933594 C 286.113281 292.933594 285.3125 291.835938 284.613281 290.535156 L 252.8125 290.535156 L 252.8125 332.136719 L 284.613281 332.136719 C 285.3125 330.835938 286.113281 329.734375 287.113281 328.734375 C 289.714844 326.136719 293.214844 324.636719 297.113281 324.636719 C 301.015625 324.636719 304.515625 326.136719 307.113281 328.734375 C 309.714844 331.234375 311.214844 334.835938 311.214844 338.738281 C 311.214844 342.636719 309.714844 346.136719 307.113281 348.738281 C 304.515625 351.238281 301.015625 352.835938 297.113281 352.835938 C 293.214844 352.835938 289.714844 351.238281 287.113281 348.738281 C 286.113281 347.738281 285.3125 346.535156 284.613281 345.238281 L 252.8125 345.238281 L 252.8125 353.535156 C 252.8125 359.539062 250.3125 365.039062 246.3125 368.9375 C 242.410156 372.9375 236.910156 375.4375 230.910156 375.4375 L 222.609375 375.4375 L 222.609375 407.238281 C 223.910156 407.9375 225.109375 408.738281 226.109375 409.738281 C 228.609375 412.339844 230.210938 415.839844 230.210938 419.738281 C 230.210938 423.640625 228.609375 427.140625 226.109375 429.738281 C 223.511719 432.339844 220.011719 433.839844 216.109375 433.839844 C 212.210938 433.839844 208.609375 432.339844 206.109375 429.738281 C 203.511719 427.140625 202.011719 423.640625 202.011719 419.738281 C 202.011719 415.839844 203.511719 412.339844 206.109375 409.738281 C 207.109375 408.738281 208.210938 407.9375 209.511719 407.238281 L 209.511719 375.4375 L 167.910156 375.4375 L 167.910156 407.238281 C 169.207031 407.9375 170.308594 408.738281 171.308594 409.738281 C 173.910156 412.339844 175.410156 415.839844 175.410156 419.738281 C 175.410156 423.640625 173.910156 427.140625 171.308594 429.738281 C 168.707031 432.339844 165.207031 433.839844 161.308594 433.839844 C 157.40625 433.839844 153.90625 432.339844 151.308594 429.738281 C 148.808594 427.140625 147.207031 423.640625 147.207031 419.738281 C 147.207031 415.839844 148.808594 412.339844 151.308594 409.738281 C 152.308594 408.738281 153.507812 407.9375 154.707031 407.238281 L 154.707031 375.4375 L 113.105469 375.4375 L 113.105469 407.238281 C 114.40625 407.9375 115.507812 408.738281 116.507812 409.738281 C 119.105469 412.339844 120.707031 415.839844 120.707031 419.738281 C 120.707031 423.640625 119.105469 427.140625 116.507812 429.738281 C 114.007812 432.339844 110.507812 433.839844 106.605469 433.839844 C 102.707031 433.839844 99.105469 432.339844 96.605469 429.738281 C 94.003906 427.140625 92.40625 423.640625 92.40625 419.738281 C 92.40625 415.839844 94.003906 412.339844 96.605469 409.738281 C 97.605469 408.738281 98.707031 407.9375 100.003906 407.238281 L 100.003906 375.4375 L 91.804688 375.4375 C 85.707031 375.4375 80.304688 372.9375 76.304688 368.9375 C 72.304688 365.039062 69.90625 359.539062 69.90625 353.535156 L 69.90625 345.238281 L 38.003906 345.238281 C 37.402344 346.535156 36.503906 347.738281 35.503906 348.738281 C 33.003906 351.238281 29.402344 352.835938 25.503906 352.835938 C 21.601562 352.835938 18.101562 351.238281 15.503906 348.738281 C 13.003906 346.136719 11.402344 342.636719 11.402344 338.738281 C 11.402344 334.835938 13.003906 331.234375 15.503906 328.734375 C 18.101562 326.136719 21.601562 324.636719 25.503906 324.636719 C 29.402344 324.636719 33.003906 326.136719 35.503906 328.734375 C 36.503906 329.734375 37.402344 330.835938 38.003906 332.136719 L 69.90625 332.136719 L 69.90625 290.535156 L 38.003906 290.535156 C 37.402344 291.835938 36.503906 292.933594 35.503906 293.933594 C 33.003906 296.535156 29.402344 298.035156 25.503906 298.035156 C 21.601562 298.035156 18.101562 296.535156 15.503906 293.933594 C 13.003906 291.335938 11.402344 287.835938 11.402344 283.933594 C 11.402344 280.035156 13.003906 276.535156 15.503906 273.933594 C 18.101562 271.433594 21.601562 269.832031 25.503906 269.832031 C 29.402344 269.832031 33.003906 271.433594 35.503906 273.933594 C 36.503906 274.933594 37.402344 276.132812 38.003906 277.332031 L 69.90625 277.332031 L 69.90625 235.730469 L 38.003906 235.730469 C 37.402344 237.03125 36.503906 238.132812 35.503906 239.132812 C 33.003906 241.734375 29.402344 243.332031 25.503906 243.332031 C 21.601562 243.332031 18.101562 241.734375 15.503906 239.132812 C 13.003906 236.632812 11.402344 233.132812 11.402344 229.230469 Z M 116.507812 222.632812 L 206.210938 222.632812 C 210.710938 222.632812 214.808594 224.433594 217.8125 227.433594 C 220.8125 230.433594 222.609375 234.53125 222.609375 239.132812 L 222.609375 328.835938 C 222.609375 333.335938 220.8125 337.4375 217.8125 340.4375 C 214.808594 343.4375 210.710938 345.238281 206.210938 345.238281 L 116.507812 345.238281 C 111.90625 345.238281 107.804688 343.4375 104.804688 340.4375 C 101.804688 337.4375 100.003906 333.335938 100.003906 328.835938 L 100.003906 239.132812 C 100.003906 234.53125 101.804688 230.433594 104.804688 227.433594 C 107.804688 224.433594 111.90625 222.632812 116.507812 222.632812 Z M 206.210938 235.730469 L 116.507812 235.730469 C 115.507812 235.730469 114.707031 236.132812 114.105469 236.730469 C 113.507812 237.332031 113.105469 238.132812 113.105469 239.132812 L 113.105469 328.835938 C 113.105469 329.734375 113.507812 330.535156 114.105469 331.136719 C 114.707031 331.734375 115.507812 332.136719 116.507812 332.136719 L 206.210938 332.136719 C 207.109375 332.136719 207.910156 331.734375 208.511719 331.136719 C 209.109375 330.535156 209.511719 329.734375 209.511719 328.835938 L 209.511719 308.035156 L 190.609375 308.035156 L 190.609375 294.933594 L 209.511719 294.933594 L 209.511719 273.035156 L 165.207031 273.035156 L 165.207031 259.832031 L 209.511719 259.832031 L 209.511719 239.132812 C 209.511719 238.132812 209.109375 237.332031 208.511719 236.730469 C 207.910156 236.132812 207.109375 235.730469 206.210938 235.730469 Z M 230.910156 205.632812 L 91.804688 205.632812 C 89.40625 205.632812 87.207031 206.632812 85.605469 208.230469 C 84.003906 209.832031 83.003906 212.03125 83.003906 214.429688 L 83.003906 353.535156 C 83.003906 355.9375 84.003906 358.039062 85.605469 359.636719 C 87.207031 361.238281 89.40625 362.238281 91.804688 362.238281 L 230.910156 362.238281 C 233.3125 362.238281 235.410156 361.238281 237.011719 359.636719 C 238.613281 358.039062 239.613281 355.9375 239.613281 353.535156 L 239.613281 214.429688 C 239.613281 212.03125 238.613281 209.832031 237.011719 208.230469 C 235.410156 206.632812 233.3125 205.632812 230.910156 205.632812 Z M 230.910156 205.632812 " clip-rule="evenodd"/></clipPath><linearGradient x1="-2.796823" gradientTransform="matrix(10.000408, 0, 0, 10.000408, 11.402175, 134.02814)" y1="9.07948" x2="33.019621" gradientUnits="userSpaceOnUse" y2="20.112299" id="2d499c0fd7"><stop stop-opacity="1" stop-color="rgb(4.875183%, 28.727722%, 74.636841%)" offset="0"/><stop stop-opacity="1" stop-color="rgb(4.908752%, 28.971863%, 74.705505%)" offset="0.00390625"/><stop stop-opacity="1" stop-color="rgb(4.942322%, 29.217529%, 74.77417%)" offset="0.0078125"/><stop stop-opacity="1" stop-color="rgb(4.975891%, 29.463196%, 74.842834%)" offset="0.0117188"/><stop stop-opacity="1" stop-color="rgb(5.00946%, 29.708862%, 74.911499%)" offset="0.015625"/><stop stop-opacity="1" stop-color="rgb(5.04303%, 29.954529%, 74.980164%)" offset="0.0195313"/><stop stop-opacity="1" stop-color="rgb(5.078125%, 30.200195%, 75.048828%)" offset="0.0234375"/><stop stop-opacity="1" stop-color="rgb(5.111694%, 30.444336%, 75.117493%)" offset="0.0273437"/><stop stop-opacity="1" stop-color="rgb(5.145264%, 30.690002%, 75.186157%)" offset="0.03125"/><stop stop-opacity="1" stop-color="rgb(5.178833%, 30.935669%, 75.254822%)" offset="0.0351562"/><stop stop-opacity="1" stop-color="rgb(5.212402%, 31.181335%, 75.323486%)" offset="0.0390625"/><stop stop-opacity="1" stop-color="rgb(5.245972%, 31.427002%, 75.392151%)" offset="0.0429687"/><stop stop-opacity="1" stop-color="rgb(5.279541%, 31.672668%, 75.462341%)" offset="0.046875"/><stop stop-opacity="1" stop-color="rgb(5.31311%, 31.916809%, 75.531006%)" offset="0.0507812"/><stop stop-opacity="1" stop-color="rgb(5.34668%, 32.162476%, 75.59967%)" offset="0.0546875"/><stop stop-opacity="1" stop-color="rgb(5.380249%, 32.408142%, 75.668335%)" offset="0.0585937"/><stop stop-opacity="1" stop-color="rgb(5.415344%, 32.653809%, 75.737%)" offset="0.0625"/><stop stop-opacity="1" stop-color="rgb(5.448914%, 32.899475%, 75.805664%)" offset="0.0664063"/><stop stop-opacity="1" stop-color="rgb(5.482483%, 33.145142%, 75.874329%)" offset="0.0703125"/><stop stop-opacity="1" stop-color="rgb(5.516052%, 33.389282%, 75.942993%)" offset="0.0742188"/><stop stop-opacity="1" stop-color="rgb(5.549622%, 33.634949%, 76.011658%)" offset="0.078125"/><stop stop-opacity="1" stop-color="rgb(5.583191%, 33.880615%, 76.080322%)" offset="0.0820313"/><stop stop-opacity="1" stop-color="rgb(5.61676%, 34.126282%, 76.148987%)" offset="0.0859375"/><stop stop-opacity="1" stop-color="rgb(5.65033%, 34.371948%, 76.217651%)" offset="0.0898438"/><stop stop-opacity="1" stop-color="rgb(5.685425%, 34.617615%, 76.287842%)" offset="0.09375"/><stop stop-opacity="1" stop-color="rgb(5.718994%, 34.861755%, 76.356506%)" offset="0.0976562"/><stop stop-opacity="1" stop-color="rgb(5.752563%, 35.107422%, 76.425171%)" offset="0.101563"/><stop stop-opacity="1" stop-color="rgb(5.786133%, 35.353088%, 76.493835%)" offset="0.105469"/><stop stop-opacity="1" stop-color="rgb(5.819702%, 35.598755%, 76.5625%)" offset="0.109375"/><stop stop-opacity="1" stop-color="rgb(5.853271%, 35.844421%, 76.631165%)" offset="0.113281"/><stop stop-opacity="1" stop-color="rgb(5.886841%, 36.090088%, 76.699829%)" offset="0.117188"/><stop stop-opacity="1" stop-color="rgb(5.92041%, 36.334229%, 76.768494%)" offset="0.121094"/><stop stop-opacity="1" stop-color="rgb(5.953979%, 36.579895%, 76.837158%)" offset="0.125"/><stop stop-opacity="1" stop-color="rgb(5.987549%, 36.825562%, 76.905823%)" offset="0.128906"/><stop stop-opacity="1" stop-color="rgb(6.022644%, 37.071228%, 76.974487%)" offset="0.132812"/><stop stop-opacity="1" stop-color="rgb(6.056213%, 37.316895%, 77.043152%)" offset="0.136719"/><stop stop-opacity="1" stop-color="rgb(6.089783%, 37.562561%, 77.113342%)" offset="0.140625"/><stop stop-opacity="1" stop-color="rgb(6.123352%, 37.806702%, 77.182007%)" offset="0.144531"/><stop stop-opacity="1" stop-color="rgb(6.156921%, 38.052368%, 77.250671%)" offset="0.148438"/><stop stop-opacity="1" stop-color="rgb(6.190491%, 38.298035%, 77.319336%)" offset="0.152344"/><stop stop-opacity="1" stop-color="rgb(6.22406%, 38.543701%, 77.388%)" offset="0.15625"/><stop stop-opacity="1" stop-color="rgb(6.257629%, 38.789368%, 77.456665%)" offset="0.160156"/><stop stop-opacity="1" stop-color="rgb(6.292725%, 39.035034%, 77.52533%)" offset="0.164063"/><stop stop-opacity="1" stop-color="rgb(6.326294%, 39.279175%, 77.593994%)" offset="0.167969"/><stop stop-opacity="1" stop-color="rgb(6.359863%, 39.524841%, 77.662659%)" offset="0.171875"/><stop stop-opacity="1" stop-color="rgb(6.393433%, 39.770508%, 77.731323%)" offset="0.175781"/><stop stop-opacity="1" stop-color="rgb(6.427002%, 40.016174%, 77.801514%)" offset="0.179688"/><stop stop-opacity="1" stop-color="rgb(6.460571%, 40.261841%, 77.870178%)" offset="0.183594"/><stop stop-opacity="1" stop-color="rgb(6.494141%, 40.507507%, 77.938843%)" offset="0.1875"/><stop stop-opacity="1" stop-color="rgb(6.52771%, 40.751648%, 78.007507%)" offset="0.191406"/><stop stop-opacity="1" stop-color="rgb(6.561279%, 40.997314%, 78.076172%)" offset="0.195313"/><stop stop-opacity="1" stop-color="rgb(6.594849%, 41.242981%, 78.144836%)" offset="0.199219"/><stop stop-opacity="1" stop-color="rgb(6.629944%, 41.488647%, 78.213501%)" offset="0.203125"/><stop stop-opacity="1" stop-color="rgb(6.663513%, 41.734314%, 78.282166%)" offset="0.207031"/><stop stop-opacity="1" stop-color="rgb(6.697083%, 41.97998%, 78.35083%)" offset="0.210938"/><stop stop-opacity="1" stop-color="rgb(6.730652%, 42.224121%, 78.419495%)" offset="0.214844"/><stop stop-opacity="1" stop-color="rgb(6.764221%, 42.469788%, 78.488159%)" offset="0.21875"/><stop stop-opacity="1" stop-color="rgb(6.797791%, 42.715454%, 78.556824%)" offset="0.222656"/><stop stop-opacity="1" stop-color="rgb(6.83136%, 42.961121%, 78.627014%)" offset="0.226562"/><stop stop-opacity="1" stop-color="rgb(6.864929%, 43.206787%, 78.695679%)" offset="0.230469"/><stop stop-opacity="1" stop-color="rgb(6.898499%, 43.452454%, 78.764343%)" offset="0.234375"/><stop stop-opacity="1" stop-color="rgb(6.932068%, 43.69812%, 78.833008%)" offset="0.238281"/><stop stop-opacity="1" stop-color="rgb(6.967163%, 43.943787%, 78.901672%)" offset="0.242188"/><stop stop-opacity="1" stop-color="rgb(7.000732%, 44.187927%, 78.970337%)" offset="0.246094"/><stop stop-opacity="1" stop-color="rgb(7.034302%, 44.433594%, 79.039001%)" offset="0.25"/><stop stop-opacity="1" stop-color="rgb(7.067871%, 44.67926%, 79.107666%)" offset="0.253906"/><stop stop-opacity="1" stop-color="rgb(7.10144%, 44.924927%, 79.176331%)" offset="0.257812"/><stop stop-opacity="1" stop-color="rgb(7.13501%, 45.170593%, 79.244995%)" offset="0.261719"/><stop stop-opacity="1" stop-color="rgb(7.168579%, 45.41626%, 79.31366%)" offset="0.265625"/><stop stop-opacity="1" stop-color="rgb(7.202148%, 45.6604%, 79.382324%)" offset="0.269531"/><stop stop-opacity="1" stop-color="rgb(7.237244%, 45.906067%, 79.452515%)" offset="0.273438"/><stop stop-opacity="1" stop-color="rgb(7.270813%, 46.151733%, 79.521179%)" offset="0.277344"/><stop stop-opacity="1" stop-color="rgb(7.304382%, 46.3974%, 79.589844%)" offset="0.28125"/><stop stop-opacity="1" stop-color="rgb(7.337952%, 46.643066%, 79.658508%)" offset="0.285156"/><stop stop-opacity="1" stop-color="rgb(7.371521%, 46.888733%, 79.727173%)" offset="0.289063"/><stop stop-opacity="1" stop-color="rgb(7.40509%, 47.132874%, 79.795837%)" offset="0.292969"/><stop stop-opacity="1" stop-color="rgb(7.43866%, 47.37854%, 79.864502%)" offset="0.296875"/><stop stop-opacity="1" stop-color="rgb(7.472229%, 47.624207%, 79.933167%)" offset="0.300781"/><stop stop-opacity="1" stop-color="rgb(7.505798%, 47.869873%, 80.001831%)" offset="0.304688"/><stop stop-opacity="1" stop-color="rgb(7.539368%, 48.11554%, 80.070496%)" offset="0.308594"/><stop stop-opacity="1" stop-color="rgb(7.574463%, 48.361206%, 80.13916%)" offset="0.3125"/><stop stop-opacity="1" stop-color="rgb(7.608032%, 48.605347%, 80.207825%)" offset="0.316406"/><stop stop-opacity="1" stop-color="rgb(7.641602%, 48.851013%, 80.278015%)" offset="0.320313"/><stop stop-opacity="1" stop-color="rgb(7.675171%, 49.09668%, 80.34668%)" offset="0.324219"/><stop stop-opacity="1" stop-color="rgb(7.70874%, 49.342346%, 80.415344%)" offset="0.328125"/><stop stop-opacity="1" stop-color="rgb(7.74231%, 49.588013%, 80.484009%)" offset="0.332031"/><stop stop-opacity="1" stop-color="rgb(7.775879%, 49.833679%, 80.552673%)" offset="0.335938"/><stop stop-opacity="1" stop-color="rgb(7.809448%, 50.07782%, 80.621338%)" offset="0.339844"/><stop stop-opacity="1" stop-color="rgb(7.844543%, 50.323486%, 80.690002%)" offset="0.34375"/><stop stop-opacity="1" stop-color="rgb(7.878113%, 50.569153%, 80.758667%)" offset="0.347656"/><stop stop-opacity="1" stop-color="rgb(7.911682%, 50.814819%, 80.827332%)" offset="0.351562"/><stop stop-opacity="1" stop-color="rgb(7.945251%, 51.060486%, 80.895996%)" offset="0.355469"/><stop stop-opacity="1" stop-color="rgb(7.978821%, 51.306152%, 80.966187%)" offset="0.359375"/><stop stop-opacity="1" stop-color="rgb(8.01239%, 51.550293%, 81.034851%)" offset="0.363281"/><stop stop-opacity="1" stop-color="rgb(8.045959%, 51.795959%, 81.103516%)" offset="0.367188"/><stop stop-opacity="1" stop-color="rgb(8.079529%, 52.041626%, 81.17218%)" offset="0.371094"/><stop stop-opacity="1" stop-color="rgb(8.113098%, 52.287292%, 81.240845%)" offset="0.375"/><stop stop-opacity="1" stop-color="rgb(8.146667%, 52.532959%, 81.309509%)" offset="0.378906"/><stop stop-opacity="1" stop-color="rgb(8.181763%, 52.778625%, 81.378174%)" offset="0.382812"/><stop stop-opacity="1" stop-color="rgb(8.215332%, 53.022766%, 81.446838%)" offset="0.386719"/><stop stop-opacity="1" stop-color="rgb(8.248901%, 53.268433%, 81.515503%)" offset="0.390625"/><stop stop-opacity="1" stop-color="rgb(8.282471%, 53.514099%, 81.584167%)" offset="0.394531"/><stop stop-opacity="1" stop-color="rgb(8.31604%, 53.759766%, 81.652832%)" offset="0.398438"/><stop stop-opacity="1" stop-color="rgb(8.349609%, 54.005432%, 81.721497%)" offset="0.402344"/><stop stop-opacity="1" stop-color="rgb(8.383179%, 54.251099%, 81.791687%)" offset="0.40625"/><stop stop-opacity="1" stop-color="rgb(8.416748%, 54.495239%, 81.860352%)" offset="0.410156"/><stop stop-opacity="1" stop-color="rgb(8.451843%, 54.740906%, 81.929016%)" offset="0.414062"/><stop stop-opacity="1" stop-color="rgb(8.485413%, 54.986572%, 81.997681%)" offset="0.417969"/><stop stop-opacity="1" stop-color="rgb(8.518982%, 55.232239%, 82.066345%)" offset="0.421875"/><stop stop-opacity="1" stop-color="rgb(8.552551%, 55.477905%, 82.13501%)" offset="0.425781"/><stop stop-opacity="1" stop-color="rgb(8.586121%, 55.723572%, 82.203674%)" offset="0.429688"/><stop stop-opacity="1" stop-color="rgb(8.61969%, 55.967712%, 82.272339%)" offset="0.433594"/><stop stop-opacity="1" stop-color="rgb(8.653259%, 56.213379%, 82.341003%)" offset="0.4375"/><stop stop-opacity="1" stop-color="rgb(8.686829%, 56.459045%, 82.409668%)" offset="0.441406"/><stop stop-opacity="1" stop-color="rgb(8.720398%, 56.704712%, 82.478333%)" offset="0.445312"/><stop stop-opacity="1" stop-color="rgb(8.753967%, 56.950378%, 82.546997%)" offset="0.449219"/><stop stop-opacity="1" stop-color="rgb(8.789062%, 57.196045%, 82.617188%)" offset="0.453125"/><stop stop-opacity="1" stop-color="rgb(8.822632%, 57.440186%, 82.685852%)" offset="0.457031"/><stop stop-opacity="1" stop-color="rgb(8.856201%, 57.685852%, 82.754517%)" offset="0.460938"/><stop stop-opacity="1" stop-color="rgb(8.889771%, 57.931519%, 82.823181%)" offset="0.464844"/><stop stop-opacity="1" stop-color="rgb(8.92334%, 58.177185%, 82.891846%)" offset="0.46875"/><stop stop-opacity="1" stop-color="rgb(8.956909%, 58.422852%, 82.96051%)" offset="0.472656"/><stop stop-opacity="1" stop-color="rgb(8.990479%, 58.668518%, 83.029175%)" offset="0.476562"/><stop stop-opacity="1" stop-color="rgb(9.024048%, 58.912659%, 83.097839%)" offset="0.480469"/><stop stop-opacity="1" stop-color="rgb(9.059143%, 59.158325%, 83.166504%)" offset="0.484375"/><stop stop-opacity="1" stop-color="rgb(9.092712%, 59.403992%, 83.235168%)" offset="0.488281"/><stop stop-opacity="1" stop-color="rgb(9.126282%, 59.649658%, 83.303833%)" offset="0.492187"/><stop stop-opacity="1" stop-color="rgb(9.159851%, 59.895325%, 83.372498%)" offset="0.496094"/><stop stop-opacity="1" stop-color="rgb(9.19342%, 60.140991%, 83.442688%)" offset="0.5"/><stop stop-opacity="1" stop-color="rgb(9.22699%, 60.385132%, 83.511353%)" offset="0.503906"/><stop stop-opacity="1" stop-color="rgb(9.260559%, 60.630798%, 83.580017%)" offset="0.507812"/><stop stop-opacity="1" stop-color="rgb(9.294128%, 60.876465%, 83.648682%)" offset="0.511719"/><stop stop-opacity="1" stop-color="rgb(9.327698%, 61.122131%, 83.717346%)" offset="0.515625"/><stop stop-opacity="1" stop-color="rgb(9.361267%, 61.367798%, 83.786011%)" offset="0.519531"/><stop stop-opacity="1" stop-color="rgb(9.396362%, 61.613464%, 83.854675%)" offset="0.523438"/><stop stop-opacity="1" stop-color="rgb(9.429932%, 61.857605%, 83.92334%)" offset="0.527344"/><stop stop-opacity="1" stop-color="rgb(9.463501%, 62.103271%, 83.992004%)" offset="0.53125"/><stop stop-opacity="1" stop-color="rgb(9.49707%, 62.348938%, 84.060669%)" offset="0.535156"/><stop stop-opacity="1" stop-color="rgb(9.53064%, 62.594604%, 84.129333%)" offset="0.539062"/><stop stop-opacity="1" stop-color="rgb(9.564209%, 62.840271%, 84.197998%)" offset="0.542969"/><stop stop-opacity="1" stop-color="rgb(9.597778%, 63.085938%, 84.268188%)" offset="0.546875"/><stop stop-opacity="1" stop-color="rgb(9.631348%, 63.330078%, 84.336853%)" offset="0.550781"/><stop stop-opacity="1" stop-color="rgb(9.664917%, 63.575745%, 84.405518%)" offset="0.554688"/><stop stop-opacity="1" stop-color="rgb(9.698486%, 63.821411%, 84.474182%)" offset="0.558594"/><stop stop-opacity="1" stop-color="rgb(9.733582%, 64.067078%, 84.542847%)" offset="0.5625"/><stop stop-opacity="1" stop-color="rgb(9.767151%, 64.312744%, 84.611511%)" offset="0.566406"/><stop stop-opacity="1" stop-color="rgb(9.80072%, 64.558411%, 84.680176%)" offset="0.570312"/><stop stop-opacity="1" stop-color="rgb(9.83429%, 64.802551%, 84.74884%)" offset="0.574219"/><stop stop-opacity="1" stop-color="rgb(9.867859%, 65.048218%, 84.817505%)" offset="0.578125"/><stop stop-opacity="1" stop-color="rgb(9.901428%, 65.293884%, 84.886169%)" offset="0.582031"/><stop stop-opacity="1" stop-color="rgb(9.934998%, 65.539551%, 84.95636%)" offset="0.585938"/><stop stop-opacity="1" stop-color="rgb(9.968567%, 65.785217%, 85.025024%)" offset="0.589844"/><stop stop-opacity="1" stop-color="rgb(10.003662%, 66.030884%, 85.093689%)" offset="0.59375"/><stop stop-opacity="1" stop-color="rgb(10.037231%, 66.27655%, 85.162354%)" offset="0.597656"/><stop stop-opacity="1" stop-color="rgb(10.070801%, 66.522217%, 85.231018%)" offset="0.601562"/><stop stop-opacity="1" stop-color="rgb(10.10437%, 66.766357%, 85.299683%)" offset="0.605469"/><stop stop-opacity="1" stop-color="rgb(10.137939%, 67.012024%, 85.368347%)" offset="0.609375"/><stop stop-opacity="1" stop-color="rgb(10.171509%, 67.25769%, 85.437012%)" offset="0.613281"/><stop stop-opacity="1" stop-color="rgb(10.205078%, 67.503357%, 85.505676%)" offset="0.617188"/><stop stop-opacity="1" stop-color="rgb(10.238647%, 67.749023%, 85.574341%)" offset="0.621094"/><stop stop-opacity="1" stop-color="rgb(10.272217%, 67.99469%, 85.643005%)" offset="0.625"/><stop stop-opacity="1" stop-color="rgb(10.305786%, 68.238831%, 85.71167%)" offset="0.628906"/><stop stop-opacity="1" stop-color="rgb(10.340881%, 68.484497%, 85.78186%)" offset="0.632812"/><stop stop-opacity="1" stop-color="rgb(10.374451%, 68.730164%, 85.850525%)" offset="0.636719"/><stop stop-opacity="1" stop-color="rgb(10.40802%, 68.97583%, 85.919189%)" offset="0.640625"/><stop stop-opacity="1" stop-color="rgb(10.441589%, 69.221497%, 85.987854%)" offset="0.644531"/><stop stop-opacity="1" stop-color="rgb(10.475159%, 69.467163%, 86.056519%)" offset="0.648438"/><stop stop-opacity="1" stop-color="rgb(10.508728%, 69.711304%, 86.125183%)" offset="0.652344"/><stop stop-opacity="1" stop-color="rgb(10.542297%, 69.95697%, 86.193848%)" offset="0.65625"/><stop stop-opacity="1" stop-color="rgb(10.575867%, 70.202637%, 86.262512%)" offset="0.660156"/><stop stop-opacity="1" stop-color="rgb(10.610962%, 70.448303%, 86.331177%)" offset="0.664062"/><stop stop-opacity="1" stop-color="rgb(10.644531%, 70.69397%, 86.399841%)" offset="0.667969"/><stop stop-opacity="1" stop-color="rgb(10.678101%, 70.939636%, 86.468506%)" offset="0.671875"/><stop stop-opacity="1" stop-color="rgb(10.71167%, 71.183777%, 86.53717%)" offset="0.675781"/><stop stop-opacity="1" stop-color="rgb(10.745239%, 71.429443%, 86.607361%)" offset="0.679688"/><stop stop-opacity="1" stop-color="rgb(10.778809%, 71.67511%, 86.676025%)" offset="0.683594"/><stop stop-opacity="1" stop-color="rgb(10.812378%, 71.920776%, 86.74469%)" offset="0.6875"/><stop stop-opacity="1" stop-color="rgb(10.845947%, 72.166443%, 86.813354%)" offset="0.691406"/><stop stop-opacity="1" stop-color="rgb(10.879517%, 72.412109%, 86.882019%)" offset="0.695313"/><stop stop-opacity="1" stop-color="rgb(10.913086%, 72.65625%, 86.950684%)" offset="0.699219"/><stop stop-opacity="1" stop-color="rgb(10.948181%, 72.901917%, 87.019348%)" offset="0.703125"/><stop stop-opacity="1" stop-color="rgb(10.98175%, 73.147583%, 87.088013%)" offset="0.707031"/><stop stop-opacity="1" stop-color="rgb(11.01532%, 73.39325%, 87.156677%)" offset="0.710938"/><stop stop-opacity="1" stop-color="rgb(11.048889%, 73.638916%, 87.225342%)" offset="0.714844"/><stop stop-opacity="1" stop-color="rgb(11.082458%, 73.884583%, 87.294006%)" offset="0.71875"/><stop stop-opacity="1" stop-color="rgb(11.116028%, 74.128723%, 87.362671%)" offset="0.722656"/><stop stop-opacity="1" stop-color="rgb(11.149597%, 74.37439%, 87.432861%)" offset="0.726562"/><stop stop-opacity="1" stop-color="rgb(11.183167%, 74.620056%, 87.501526%)" offset="0.730469"/><stop stop-opacity="1" stop-color="rgb(11.218262%, 74.865723%, 87.57019%)" offset="0.734375"/><stop stop-opacity="1" stop-color="rgb(11.251831%, 75.111389%, 87.638855%)" offset="0.738281"/><stop stop-opacity="1" stop-color="rgb(11.2854%, 75.357056%, 87.70752%)" offset="0.742188"/><stop stop-opacity="1" stop-color="rgb(11.31897%, 75.601196%, 87.776184%)" offset="0.746094"/><stop stop-opacity="1" stop-color="rgb(11.352539%, 75.846863%, 87.844849%)" offset="0.75"/><stop stop-opacity="1" stop-color="rgb(11.386108%, 76.092529%, 87.913513%)" offset="0.753906"/><stop stop-opacity="1" stop-color="rgb(11.419678%, 76.338196%, 87.982178%)" offset="0.757812"/><stop stop-opacity="1" stop-color="rgb(11.453247%, 76.583862%, 88.050842%)" offset="0.761719"/><stop stop-opacity="1" stop-color="rgb(11.486816%, 76.829529%, 88.119507%)" offset="0.765625"/><stop stop-opacity="1" stop-color="rgb(11.520386%, 77.073669%, 88.188171%)" offset="0.769531"/><stop stop-opacity="1" stop-color="rgb(11.555481%, 77.319336%, 88.258362%)" offset="0.773438"/><stop stop-opacity="1" stop-color="rgb(11.58905%, 77.565002%, 88.327026%)" offset="0.777344"/><stop stop-opacity="1" stop-color="rgb(11.62262%, 77.810669%, 88.395691%)" offset="0.78125"/><stop stop-opacity="1" stop-color="rgb(11.656189%, 78.056335%, 88.464355%)" offset="0.785156"/><stop stop-opacity="1" stop-color="rgb(11.689758%, 78.302002%, 88.53302%)" offset="0.789062"/><stop stop-opacity="1" stop-color="rgb(11.723328%, 78.546143%, 88.601685%)" offset="0.792969"/><stop stop-opacity="1" stop-color="rgb(11.756897%, 78.791809%, 88.670349%)" offset="0.796875"/><stop stop-opacity="1" stop-color="rgb(11.790466%, 79.037476%, 88.739014%)" offset="0.800781"/><stop stop-opacity="1" stop-color="rgb(11.824036%, 79.283142%, 88.807678%)" offset="0.804688"/><stop stop-opacity="1" stop-color="rgb(11.857605%, 79.528809%, 88.876343%)" offset="0.808594"/><stop stop-opacity="1" stop-color="rgb(11.8927%, 79.774475%, 88.946533%)" offset="0.8125"/><stop stop-opacity="1" stop-color="rgb(11.92627%, 80.018616%, 89.015198%)" offset="0.816406"/><stop stop-opacity="1" stop-color="rgb(11.959839%, 80.264282%, 89.083862%)" offset="0.820312"/><stop stop-opacity="1" stop-color="rgb(11.993408%, 80.509949%, 89.152527%)" offset="0.824219"/><stop stop-opacity="1" stop-color="rgb(12.026978%, 80.755615%, 89.221191%)" offset="0.828125"/><stop stop-opacity="1" stop-color="rgb(12.060547%, 81.001282%, 89.289856%)" offset="0.832031"/><stop stop-opacity="1" stop-color="rgb(12.094116%, 81.246948%, 89.358521%)" offset="0.835938"/><stop stop-opacity="1" stop-color="rgb(12.127686%, 81.491089%, 89.427185%)" offset="0.839844"/><stop stop-opacity="1" stop-color="rgb(12.162781%, 81.736755%, 89.49585%)" offset="0.84375"/><stop stop-opacity="1" stop-color="rgb(12.19635%, 81.982422%, 89.564514%)" offset="0.847656"/><stop stop-opacity="1" stop-color="rgb(12.229919%, 82.228088%, 89.633179%)" offset="0.851562"/><stop stop-opacity="1" stop-color="rgb(12.263489%, 82.473755%, 89.701843%)" offset="0.855469"/><stop stop-opacity="1" stop-color="rgb(12.297058%, 82.719421%, 89.772034%)" offset="0.859375"/><stop stop-opacity="1" stop-color="rgb(12.330627%, 82.963562%, 89.840698%)" offset="0.863281"/><stop stop-opacity="1" stop-color="rgb(12.364197%, 83.209229%, 89.909363%)" offset="0.867188"/><stop stop-opacity="1" stop-color="rgb(12.397766%, 83.454895%, 89.978027%)" offset="0.871094"/><stop stop-opacity="1" stop-color="rgb(12.431335%, 83.700562%, 90.046692%)" offset="0.875"/><stop stop-opacity="1" stop-color="rgb(12.464905%, 83.946228%, 90.115356%)" offset="0.878906"/><stop stop-opacity="1" stop-color="rgb(12.5%, 84.191895%, 90.184021%)" offset="0.882813"/><stop stop-opacity="1" stop-color="rgb(12.533569%, 84.436035%, 90.252686%)" offset="0.886719"/><stop stop-opacity="1" stop-color="rgb(12.567139%, 84.681702%, 90.32135%)" offset="0.890625"/><stop stop-opacity="1" stop-color="rgb(12.600708%, 84.927368%, 90.390015%)" offset="0.894531"/><stop stop-opacity="1" stop-color="rgb(12.634277%, 85.173035%, 90.458679%)" offset="0.898438"/><stop stop-opacity="1" stop-color="rgb(12.667847%, 85.418701%, 90.527344%)" offset="0.902344"/><stop stop-opacity="1" stop-color="rgb(12.701416%, 85.664368%, 90.597534%)" offset="0.90625"/><stop stop-opacity="1" stop-color="rgb(12.734985%, 85.908508%, 90.666199%)" offset="0.910156"/><stop stop-opacity="1" stop-color="rgb(12.770081%, 86.154175%, 90.734863%)" offset="0.914062"/><stop stop-opacity="1" stop-color="rgb(12.80365%, 86.399841%, 90.803528%)" offset="0.917969"/><stop stop-opacity="1" stop-color="rgb(12.837219%, 86.645508%, 90.872192%)" offset="0.921875"/><stop stop-opacity="1" stop-color="rgb(12.867737%, 86.871338%, 90.934753%)" offset="0.925781"/><stop stop-opacity="1" stop-color="rgb(12.89978%, 87.098694%, 90.99884%)" offset="0.929688"/><stop stop-opacity="1" stop-color="rgb(12.89978%, 87.098694%, 90.99884%)" offset="0.9375"/><stop stop-opacity="1" stop-color="rgb(12.89978%, 87.098694%, 90.99884%)" offset="1"/></linearGradient></defs><g clip-path="url(#7bfb0102c2)"><g clip-path="url(#dbdc4fbd6c)"><path fill="url(#2d499c0fd7)" d="M 11.402344 134.027344 L 11.402344 433.839844 L 311.214844 433.839844 L 311.214844 134.027344 Z M 11.402344 134.027344 " fill-rule="nonzero"/></g></g><g fill="#d9d9d9" fill-opacity="1"><g transform="translate(375.795833, 413.679273)"><g><path d="M 33.105469 -20.371094 L 33.105469 -25.464844 C 33.105469 -26.859375 32.605469 -28.054688 31.601562 -29.058594 C 30.601562 -30.058594 29.40625 -30.558594 28.011719 -30.558594 L 7.640625 -30.558594 L 7.640625 -15.28125 L 28.011719 -15.28125 C 29.40625 -15.28125 30.601562 -15.78125 31.601562 -16.78125 C 32.605469 -17.785156 33.105469 -18.980469 33.105469 -20.371094 Z M 38.199219 -25.464844 L 38.199219 -20.371094 C 38.199219 -18.574219 37.75 -16.902344 36.847656 -15.355469 C 35.949219 -13.8125 34.726562 -12.5625 33.183594 -11.613281 C 31.636719 -10.660156 29.914062 -10.1875 28.011719 -10.1875 L 7.640625 -10.1875 L 7.640625 0 L 2.546875 0 L 2.546875 -35.652344 L 28.011719 -35.652344 C 29.847656 -35.652344 31.519531 -35.195312 33.03125 -34.277344 C 34.539062 -33.359375 35.769531 -32.136719 36.722656 -30.609375 C 37.671875 -29.082031 38.164062 -27.367188 38.199219 -25.464844 Z M 38.199219 -25.464844 "/></g></g></g><g fill="#d9d9d9" fill-opacity="1"><g transform="translate(430.125145, 413.679273)"><g><path d="M 33.105469 -20.371094 L 33.105469 -25.464844 C 33.105469 -26.859375 32.605469 -28.054688 31.601562 -29.058594 C 30.601562 -30.058594 29.40625 -30.558594 28.011719 -30.558594 L 7.640625 -30.558594 L 7.640625 -15.28125 L 28.011719 -15.28125 C 29.40625 -15.28125 30.601562 -15.78125 31.601562 -16.78125 C 32.605469 -17.785156 33.105469 -18.980469 33.105469 -20.371094 Z M 38.199219 0 L 34.582031 0 L 24.398438 -10.1875 L 7.640625 -10.1875 L 7.640625 0 L 2.546875 0 L 2.546875 -35.652344 L 28.011719 -35.652344 C 29.8125 -35.652344 31.484375 -35.195312 33.03125 -34.277344 C 34.574219 -33.359375 35.824219 -32.136719 36.773438 -30.609375 C 37.722656 -29.082031 38.199219 -27.367188 38.199219 -25.464844 L 38.199219 -20.371094 C 38.199219 -18.199219 37.546875 -16.222656 36.238281 -14.4375 C 34.929688 -12.65625 33.226562 -11.410156 31.121094 -10.695312 L 38.199219 -3.617188 Z M 38.199219 0 "/></g></g></g><g fill="#d9d9d9" fill-opacity="1"><g transform="translate(484.963553, 413.679273)"><g><path d="M 32.597656 -10.1875 L 32.597656 -25.464844 C 32.597656 -26.859375 32.097656 -28.054688 31.09375 -29.058594 C 30.09375 -30.058594 28.894531 -30.558594 27.503906 -30.558594 L 12.222656 -30.558594 C 10.832031 -30.558594 9.632812 -30.058594 8.632812 -29.058594 C 7.632812 -28.054688 7.128906 -26.859375 7.128906 -25.464844 L 7.128906 -10.1875 C 7.128906 -8.792969 7.632812 -7.597656 8.632812 -6.597656 C 9.632812 -5.59375 10.832031 -5.09375 12.222656 -5.09375 L 27.503906 -5.09375 C 28.894531 -5.09375 30.09375 -5.59375 31.09375 -6.597656 C 32.097656 -7.597656 32.597656 -8.792969 32.597656 -10.1875 Z M 37.691406 -25.464844 L 37.691406 -10.1875 C 37.691406 -8.320312 37.230469 -6.613281 36.316406 -5.066406 C 35.398438 -3.523438 34.167969 -2.292969 32.621094 -1.375 C 31.078125 -0.457031 29.371094 0 27.503906 0 L 12.222656 0 C 10.355469 0 8.648438 -0.457031 7.105469 -1.375 C 5.558594 -2.292969 4.328125 -3.523438 3.414062 -5.066406 C 2.496094 -6.613281 2.039062 -8.320312 2.039062 -10.1875 L 2.039062 -25.464844 C 2.039062 -27.332031 2.496094 -29.039062 3.414062 -30.585938 C 4.328125 -32.128906 5.558594 -33.359375 7.105469 -34.277344 C 8.648438 -35.195312 10.355469 -35.652344 12.222656 -35.652344 L 27.503906 -35.652344 C 29.304688 -35.652344 30.976562 -35.1875 32.519531 -34.253906 C 34.066406 -33.316406 35.3125 -32.085938 36.265625 -30.558594 C 37.214844 -29.03125 37.691406 -27.332031 37.691406 -25.464844 Z M 37.691406 -25.464844 "/></g></g></g><g fill="#d9d9d9" fill-opacity="1"><g transform="translate(539.292857, 413.679273)"><g><path d="M 33.105469 -10.1875 L 33.105469 -25.464844 C 33.105469 -26.859375 32.605469 -28.054688 31.601562 -29.058594 C 30.601562 -30.058594 29.40625 -30.558594 28.011719 -30.558594 L 7.640625 -30.558594 L 7.640625 -5.09375 L 28.011719 -5.09375 C 29.40625 -5.09375 30.601562 -5.59375 31.601562 -6.597656 C 32.605469 -7.597656 33.105469 -8.792969 33.105469 -10.1875 Z M 38.199219 -25.464844 L 38.199219 -10.1875 C 38.199219 -8.386719 37.75 -6.714844 36.847656 -5.167969 C 35.949219 -3.625 34.726562 -2.375 33.183594 -1.425781 C 31.636719 -0.476562 29.914062 0 28.011719 0 L 2.546875 0 L 2.546875 -35.652344 L 28.011719 -35.652344 C 29.847656 -35.652344 31.519531 -35.195312 33.03125 -34.277344 C 34.539062 -33.359375 35.769531 -32.136719 36.722656 -30.609375 C 37.671875 -29.082031 38.164062 -27.367188 38.199219 -25.464844 Z M 38.199219 -25.464844 "/></g></g></g><g fill="#d9d9d9" fill-opacity="1"><g transform="translate(594.131272, 413.679273)"><g><path d="M 33.105469 -10.1875 L 33.105469 -35.652344 L 38.199219 -35.652344 L 38.199219 -10.1875 C 38.199219 -8.386719 37.75 -6.714844 36.847656 -5.167969 C 35.949219 -3.625 34.726562 -2.375 33.183594 -1.425781 C 31.636719 -0.476562 29.914062 0 28.011719 0 L 12.734375 0 C 10.933594 0 9.253906 -0.449219 7.691406 -1.351562 C 6.128906 -2.25 4.882812 -3.472656 3.945312 -5.015625 C 3.011719 -6.5625 2.546875 -8.285156 2.546875 -10.1875 L 2.546875 -35.652344 L 7.640625 -35.652344 L 7.640625 -10.1875 C 7.640625 -8.792969 8.140625 -7.597656 9.140625 -6.597656 C 10.144531 -5.59375 11.339844 -5.09375 12.734375 -5.09375 L 28.011719 -5.09375 C 29.40625 -5.09375 30.601562 -5.59375 31.601562 -6.597656 C 32.605469 -7.597656 33.105469 -8.792969 33.105469 -10.1875 Z M 33.105469 -10.1875 "/></g></g></g><g fill="#d9d9d9" fill-opacity="1"><g transform="translate(649.478836, 413.679273)"><g><path d="M 12.222656 -35.652344 L 27.503906 -35.652344 C 29.335938 -35.652344 31.007812 -35.195312 32.519531 -34.277344 C 34.03125 -33.359375 35.261719 -32.136719 36.210938 -30.609375 C 37.164062 -29.082031 37.65625 -27.367188 37.691406 -25.464844 L 32.597656 -25.464844 C 32.597656 -26.859375 32.097656 -28.054688 31.09375 -29.058594 C 30.09375 -30.058594 28.894531 -30.558594 27.503906 -30.558594 L 12.222656 -30.558594 C 10.832031 -30.558594 9.632812 -30.058594 8.632812 -29.058594 C 7.632812 -28.054688 7.128906 -26.859375 7.128906 -25.464844 L 7.128906 -10.1875 C 7.128906 -8.792969 7.632812 -7.597656 8.632812 -6.597656 C 9.632812 -5.59375 10.832031 -5.09375 12.222656 -5.09375 L 27.503906 -5.09375 C 28.894531 -5.09375 30.09375 -5.59375 31.09375 -6.597656 C 32.097656 -7.597656 32.597656 -8.792969 32.597656 -10.1875 L 37.691406 -10.1875 C 37.691406 -8.386719 37.238281 -6.714844 36.339844 -5.167969 C 35.441406 -3.625 34.21875 -2.375 32.671875 -1.425781 C 31.128906 -0.476562 29.40625 0 27.503906 0 L 12.222656 0 C 10.425781 0 8.742188 -0.449219 7.179688 -1.351562 C 5.621094 -2.25 4.371094 -3.472656 3.4375 -5.015625 C 2.503906 -6.5625 2.039062 -8.285156 2.039062 -10.1875 L 2.039062 -25.464844 C 2.039062 -27.300781 2.488281 -28.980469 3.386719 -30.507812 C 4.285156 -32.035156 5.507812 -33.265625 7.054688 -34.199219 C 8.597656 -35.136719 10.324219 -35.617188 12.222656 -35.652344 Z M 12.222656 -35.652344 "/></g></g></g><g fill="#d9d9d9" fill-opacity="1"><g transform="translate(703.299058, 413.679273)"><g><path d="M 35.652344 -30.558594 L 20.371094 -30.558594 L 20.371094 0 L 15.28125 0 L 15.28125 -30.558594 L 0 -30.558594 L 0 -35.652344 L 35.652344 -35.652344 Z M 35.652344 -30.558594 "/></g></g></g><g fill="#d9d9d9" fill-opacity="1"><g transform="translate(753.555496, 413.679273)"><g><path d="M 32.597656 -10.1875 L 32.597656 -25.464844 C 32.597656 -26.859375 32.097656 -28.054688 31.09375 -29.058594 C 30.09375 -30.058594 28.894531 -30.558594 27.503906 -30.558594 L 12.222656 -30.558594 C 10.832031 -30.558594 9.632812 -30.058594 8.632812 -29.058594 C 7.632812 -28.054688 7.128906 -26.859375 7.128906 -25.464844 L 7.128906 -10.1875 C 7.128906 -8.792969 7.632812 -7.597656 8.632812 -6.597656 C 9.632812 -5.59375 10.832031 -5.09375 12.222656 -5.09375 L 27.503906 -5.09375 C 28.894531 -5.09375 30.09375 -5.59375 31.09375 -6.597656 C 32.097656 -7.597656 32.597656 -8.792969 32.597656 -10.1875 Z M 37.691406 -25.464844 L 37.691406 -10.1875 C 37.691406 -8.320312 37.230469 -6.613281 36.316406 -5.066406 C 35.398438 -3.523438 34.167969 -2.292969 32.621094 -1.375 C 31.078125 -0.457031 29.371094 0 27.503906 0 L 12.222656 0 C 10.355469 0 8.648438 -0.457031 7.105469 -1.375 C 5.558594 -2.292969 4.328125 -3.523438 3.414062 -5.066406 C 2.496094 -6.613281 2.039062 -8.320312 2.039062 -10.1875 L 2.039062 -25.464844 C 2.039062 -27.332031 2.496094 -29.039062 3.414062 -30.585938 C 4.328125 -32.128906 5.558594 -33.359375 7.105469 -34.277344 C 8.648438 -35.195312 10.355469 -35.652344 12.222656 -35.652344 L 27.503906 -35.652344 C 29.304688 -35.652344 30.976562 -35.1875 32.519531 -34.253906 C 34.066406 -33.316406 35.3125 -32.085938 36.265625 -30.558594 C 37.214844 -29.03125 37.691406 -27.332031 37.691406 -25.464844 Z M 37.691406 -25.464844 "/></g></g></g><g fill="#d9d9d9" fill-opacity="1"><g transform="translate(807.884814, 413.679273)"><g><path d="M 37.691406 -10.1875 C 37.691406 -8.386719 37.238281 -6.714844 36.339844 -5.167969 C 35.441406 -3.625 34.21875 -2.375 32.671875 -1.425781 C 31.128906 -0.476562 29.40625 0 27.503906 0 L 12.222656 0 C 10.390625 0 8.710938 -0.449219 7.179688 -1.351562 C 5.652344 -2.25 4.429688 -3.472656 3.515625 -5.015625 C 2.597656 -6.5625 2.105469 -8.285156 2.039062 -10.1875 L 7.128906 -10.1875 C 7.128906 -8.792969 7.632812 -7.597656 8.632812 -6.597656 C 9.632812 -5.59375 10.832031 -5.09375 12.222656 -5.09375 L 27.503906 -5.09375 C 28.894531 -5.09375 30.09375 -5.59375 31.09375 -6.597656 C 32.097656 -7.597656 32.597656 -8.792969 32.597656 -10.1875 C 32.597656 -11.578125 32.097656 -12.777344 31.09375 -13.777344 C 30.09375 -14.777344 28.894531 -15.28125 27.503906 -15.28125 L 12.222656 -15.28125 C 10.425781 -15.28125 8.742188 -15.730469 7.179688 -16.628906 C 5.621094 -17.527344 4.371094 -18.75 3.4375 -20.296875 C 2.503906 -21.839844 2.039062 -23.566406 2.039062 -25.464844 C 2.039062 -27.265625 2.488281 -28.9375 3.386719 -30.484375 C 4.285156 -32.027344 5.507812 -33.277344 7.054688 -34.226562 C 8.597656 -35.175781 10.324219 -35.652344 12.222656 -35.652344 L 27.503906 -35.652344 C 29.335938 -35.652344 31.007812 -35.195312 32.519531 -34.277344 C 34.03125 -33.359375 35.261719 -32.136719 36.210938 -30.609375 C 37.164062 -29.082031 37.65625 -27.367188 37.691406 -25.464844 L 32.597656 -25.464844 C 32.597656 -26.859375 32.097656 -28.054688 31.09375 -29.058594 C 30.09375 -30.058594 28.894531 -30.558594 27.503906 -30.558594 L 12.222656 -30.558594 C 10.832031 -30.558594 9.632812 -30.058594 8.632812 -29.058594 C 7.632812 -28.054688 7.128906 -26.859375 7.128906 -25.464844 C 7.128906 -24.074219 7.632812 -22.878906 8.632812 -21.875 C 9.632812 -20.875 10.832031 -20.371094 12.222656 -20.371094 L 27.503906 -20.371094 C 29.304688 -20.371094 30.976562 -19.914062 32.519531 -18.996094 C 34.066406 -18.082031 35.3125 -16.859375 36.265625 -15.332031 C 37.214844 -13.800781 37.691406 -12.089844 37.691406 -10.1875 Z M 37.691406 -10.1875 "/></g></g></g><g fill="#d9d9d9" fill-opacity="1"><g transform="translate(862.214132, 413.679273)"><g/></g></g><g fill="#d9d9d9" fill-opacity="1"><g transform="translate(897.197328, 413.679273)"><g><path d="M 33.105469 -10.1875 L 33.105469 -25.464844 C 33.105469 -26.859375 32.605469 -28.054688 31.601562 -29.058594 C 30.601562 -30.058594 29.40625 -30.558594 28.011719 -30.558594 L 7.640625 -30.558594 L 7.640625 -5.09375 L 28.011719 -5.09375 C 29.40625 -5.09375 30.601562 -5.59375 31.601562 -6.597656 C 32.605469 -7.597656 33.105469 -8.792969 33.105469 -10.1875 Z M 38.199219 -25.464844 L 38.199219 -10.1875 C 38.199219 -8.386719 37.75 -6.714844 36.847656 -5.167969 C 35.949219 -3.625 34.726562 -2.375 33.183594 -1.425781 C 31.636719 -0.476562 29.914062 0 28.011719 0 L 2.546875 0 L 2.546875 -35.652344 L 28.011719 -35.652344 C 29.847656 -35.652344 31.519531 -35.195312 33.03125 -34.277344 C 34.539062 -33.359375 35.769531 -32.136719 36.722656 -30.609375 C 37.671875 -29.082031 38.164062 -27.367188 38.199219 -25.464844 Z M 38.199219 -25.464844 "/></g></g></g><g fill="#d9d9d9" fill-opacity="1"><g transform="translate(952.035716, 413.679273)"><g><path d="M 7.640625 -30.558594 L 7.640625 -20.371094 L 33.105469 -20.371094 L 33.105469 -15.28125 L 7.640625 -15.28125 L 7.640625 -5.09375 L 38.199219 -5.09375 L 38.199219 0 L 2.546875 0 L 2.546875 -35.652344 L 38.199219 -35.652344 L 38.199219 -30.558594 Z M 7.640625 -30.558594 "/></g></g></g><g fill="#d9d9d9" fill-opacity="1"><g transform="translate(1006.365007, 413.679273)"><g/></g></g><g fill="#d9d9d9" fill-opacity="1"><g transform="translate(1041.348203, 413.679273)"><g><path d="M 12.222656 -35.652344 L 27.503906 -35.652344 C 29.335938 -35.652344 31.007812 -35.195312 32.519531 -34.277344 C 34.03125 -33.359375 35.261719 -32.136719 36.210938 -30.609375 C 37.164062 -29.082031 37.65625 -27.367188 37.691406 -25.464844 L 32.597656 -25.464844 C 32.597656 -26.859375 32.097656 -28.054688 31.09375 -29.058594 C 30.09375 -30.058594 28.894531 -30.558594 27.503906 -30.558594 L 12.222656 -30.558594 C 10.832031 -30.558594 9.632812 -30.058594 8.632812 -29.058594 C 7.632812 -28.054688 7.128906 -26.859375 7.128906 -25.464844 L 7.128906 -10.1875 C 7.128906 -8.792969 7.632812 -7.597656 8.632812 -6.597656 C 9.632812 -5.59375 10.832031 -5.09375 12.222656 -5.09375 L 27.503906 -5.09375 C 28.894531 -5.09375 30.09375 -5.59375 31.09375 -6.597656 C 32.097656 -7.597656 32.597656 -8.792969 32.597656 -10.1875 L 37.691406 -10.1875 C 37.691406 -8.386719 37.238281 -6.714844 36.339844 -5.167969 C 35.441406 -3.625 34.21875 -2.375 32.671875 -1.425781 C 31.128906 -0.476562 29.40625 0 27.503906 0 L 12.222656 0 C 10.425781 0 8.742188 -0.449219 7.179688 -1.351562 C 5.621094 -2.25 4.371094 -3.472656 3.4375 -5.015625 C 2.503906 -6.5625 2.039062 -8.285156 2.039062 -10.1875 L 2.039062 -25.464844 C 2.039062 -27.300781 2.488281 -28.980469 3.386719 -30.507812 C 4.285156 -32.035156 5.507812 -33.265625 7.054688 -34.199219 C 8.597656 -35.136719 10.324219 -35.617188 12.222656 -35.652344 Z M 12.222656 -35.652344 "/></g></g></g><g fill="#d9d9d9" fill-opacity="1"><g transform="translate(1095.168398, 413.679273)"><g><path d="M 32.597656 -10.1875 L 32.597656 -25.464844 C 32.597656 -26.859375 32.097656 -28.054688 31.09375 -29.058594 C 30.09375 -30.058594 28.894531 -30.558594 27.503906 -30.558594 L 12.222656 -30.558594 C 10.832031 -30.558594 9.632812 -30.058594 8.632812 -29.058594 C 7.632812 -28.054688 7.128906 -26.859375 7.128906 -25.464844 L 7.128906 -10.1875 C 7.128906 -8.792969 7.632812 -7.597656 8.632812 -6.597656 C 9.632812 -5.59375 10.832031 -5.09375 12.222656 -5.09375 L 27.503906 -5.09375 C 28.894531 -5.09375 30.09375 -5.59375 31.09375 -6.597656 C 32.097656 -7.597656 32.597656 -8.792969 32.597656 -10.1875 Z M 37.691406 -25.464844 L 37.691406 -10.1875 C 37.691406 -8.320312 37.230469 -6.613281 36.316406 -5.066406 C 35.398438 -3.523438 34.167969 -2.292969 32.621094 -1.375 C 31.078125 -0.457031 29.371094 0 27.503906 0 L 12.222656 0 C 10.355469 0 8.648438 -0.457031 7.105469 -1.375 C 5.558594 -2.292969 4.328125 -3.523438 3.414062 -5.066406 C 2.496094 -6.613281 2.039062 -8.320312 2.039062 -10.1875 L 2.039062 -25.464844 C 2.039062 -27.332031 2.496094 -29.039062 3.414062 -30.585938 C 4.328125 -32.128906 5.558594 -33.359375 7.105469 -34.277344 C 8.648438 -35.195312 10.355469 -35.652344 12.222656 -35.652344 L 27.503906 -35.652344 C 29.304688 -35.652344 30.976562 -35.1875 32.519531 -34.253906 C 34.066406 -33.316406 35.3125 -32.085938 36.265625 -30.558594 C 37.214844 -29.03125 37.691406 -27.332031 37.691406 -25.464844 Z M 37.691406 -25.464844 "/></g></g></g><g fill="#d9d9d9" fill-opacity="1"><g transform="translate(1149.497689, 413.679273)"><g><path d="M 22.917969 -4.480469 L 7.640625 -26.535156 L 7.640625 0 L 2.546875 0 L 2.546875 -35.652344 L 7.640625 -35.652344 L 22.917969 -13.597656 L 38.199219 -35.652344 L 43.292969 -35.652344 L 43.292969 0 L 38.199219 0 L 38.199219 -26.535156 Z M 22.917969 -4.480469 "/></g></g></g><g fill="#d9d9d9" fill-opacity="1"><g transform="translate(1209.936297, 413.679273)"><g><path d="M 33.105469 -20.371094 L 33.105469 -25.464844 C 33.105469 -26.859375 32.605469 -28.054688 31.601562 -29.058594 C 30.601562 -30.058594 29.40625 -30.558594 28.011719 -30.558594 L 7.640625 -30.558594 L 7.640625 -15.28125 L 28.011719 -15.28125 C 29.40625 -15.28125 30.601562 -15.78125 31.601562 -16.78125 C 32.605469 -17.785156 33.105469 -18.980469 33.105469 -20.371094 Z M 38.199219 -25.464844 L 38.199219 -20.371094 C 38.199219 -18.574219 37.75 -16.902344 36.847656 -15.355469 C 35.949219 -13.8125 34.726562 -12.5625 33.183594 -11.613281 C 31.636719 -10.660156 29.914062 -10.1875 28.011719 -10.1875 L 7.640625 -10.1875 L 7.640625 0 L 2.546875 0 L 2.546875 -35.652344 L 28.011719 -35.652344 C 29.847656 -35.652344 31.519531 -35.195312 33.03125 -34.277344 C 34.539062 -33.359375 35.769531 -32.136719 36.722656 -30.609375 C 37.671875 -29.082031 38.164062 -27.367188 38.199219 -25.464844 Z M 38.199219 -25.464844 "/></g></g></g><g fill="#d9d9d9" fill-opacity="1"><g transform="translate(1264.265588, 413.679273)"><g><path d="M 33.105469 -10.1875 L 33.105469 -35.652344 L 38.199219 -35.652344 L 38.199219 -10.1875 C 38.199219 -8.386719 37.75 -6.714844 36.847656 -5.167969 C 35.949219 -3.625 34.726562 -2.375 33.183594 -1.425781 C 31.636719 -0.476562 29.914062 0 28.011719 0 L 12.734375 0 C 10.933594 0 9.253906 -0.449219 7.691406 -1.351562 C 6.128906 -2.25 4.882812 -3.472656 3.945312 -5.015625 C 3.011719 -6.5625 2.546875 -8.285156 2.546875 -10.1875 L 2.546875 -35.652344 L 7.640625 -35.652344 L 7.640625 -10.1875 C 7.640625 -8.792969 8.140625 -7.597656 9.140625 -6.597656 C 10.144531 -5.59375 11.339844 -5.09375 12.734375 -5.09375 L 28.011719 -5.09375 C 29.40625 -5.09375 30.601562 -5.59375 31.601562 -6.597656 C 32.605469 -7.597656 33.105469 -8.792969 33.105469 -10.1875 Z M 33.105469 -10.1875 "/></g></g></g><g fill="#d9d9d9" fill-opacity="1"><g transform="translate(1319.613179, 413.679273)"><g><path d="M 35.652344 -30.558594 L 20.371094 -30.558594 L 20.371094 0 L 15.28125 0 L 15.28125 -30.558594 L 0 -30.558594 L 0 -35.652344 L 35.652344 -35.652344 Z M 35.652344 -30.558594 "/></g></g></g><g fill="#d9d9d9" fill-opacity="1"><g transform="translate(1369.869592, 413.679273)"><g><path d="M 32.597656 -10.1875 L 32.597656 -25.464844 C 32.597656 -26.859375 32.097656 -28.054688 31.09375 -29.058594 C 30.09375 -30.058594 28.894531 -30.558594 27.503906 -30.558594 L 12.222656 -30.558594 C 10.832031 -30.558594 9.632812 -30.058594 8.632812 -29.058594 C 7.632812 -28.054688 7.128906 -26.859375 7.128906 -25.464844 L 7.128906 -10.1875 C 7.128906 -8.792969 7.632812 -7.597656 8.632812 -6.597656 C 9.632812 -5.59375 10.832031 -5.09375 12.222656 -5.09375 L 27.503906 -5.09375 C 28.894531 -5.09375 30.09375 -5.59375 31.09375 -6.597656 C 32.097656 -7.597656 32.597656 -8.792969 32.597656 -10.1875 Z M 37.691406 -25.464844 L 37.691406 -10.1875 C 37.691406 -8.320312 37.230469 -6.613281 36.316406 -5.066406 C 35.398438 -3.523438 34.167969 -2.292969 32.621094 -1.375 C 31.078125 -0.457031 29.371094 0 27.503906 0 L 12.222656 0 C 10.355469 0 8.648438 -0.457031 7.105469 -1.375 C 5.558594 -2.292969 4.328125 -3.523438 3.414062 -5.066406 C 2.496094 -6.613281 2.039062 -8.320312 2.039062 -10.1875 L 2.039062 -25.464844 C 2.039062 -27.332031 2.496094 -29.039062 3.414062 -30.585938 C 4.328125 -32.128906 5.558594 -33.359375 7.105469 -34.277344 C 8.648438 -35.195312 10.355469 -35.652344 12.222656 -35.652344 L 27.503906 -35.652344 C 29.304688 -35.652344 30.976562 -35.1875 32.519531 -34.253906 C 34.066406 -33.316406 35.3125 -32.085938 36.265625 -30.558594 C 37.214844 -29.03125 37.691406 -27.332031 37.691406 -25.464844 Z M 37.691406 -25.464844 "/></g></g></g><g fill="#21dee8" fill-opacity="1"><g transform="translate(371.172631, 318.902067)"><g><path d="M 46.859375 -141.203125 L 46.859375 0 L 12.46875 0 L 12.46875 -141.203125 Z M 46.859375 -141.203125 "/></g></g></g><g fill="#21dee8" fill-opacity="1"><g transform="translate(430.5074, 318.902067)"><g><path d="M 138.78125 0 L 104.390625 0 L 46.859375 -87.09375 L 46.859375 0 L 12.46875 0 L 12.46875 -141.203125 L 46.859375 -141.203125 L 104.390625 -53.703125 L 104.390625 -141.203125 L 138.78125 -141.203125 Z M 138.78125 0 "/></g></g></g><g fill="#21dee8" fill-opacity="1"><g transform="translate(581.76077, 318.902067)"><g><path d="M 138.78125 0 L 104.390625 0 L 46.859375 -87.09375 L 46.859375 0 L 12.46875 0 L 12.46875 -141.203125 L 46.859375 -141.203125 L 104.390625 -53.703125 L 104.390625 -141.203125 L 138.78125 -141.203125 Z M 138.78125 0 "/></g></g></g><g fill="#21dee8" fill-opacity="1"><g transform="translate(733.014139, 318.902067)"><g><path d="M 79.25 1.40625 C 65.976562 1.40625 53.804688 -1.675781 42.734375 -7.84375 C 31.671875 -14.007812 22.890625 -22.625 16.390625 -33.6875 C 9.890625 -44.75 6.640625 -57.1875 6.640625 -71 C 6.640625 -84.8125 9.890625 -97.210938 16.390625 -108.203125 C 22.890625 -119.203125 31.671875 -127.785156 42.734375 -133.953125 C 53.804688 -140.128906 65.976562 -143.21875 79.25 -143.21875 C 92.519531 -143.21875 104.6875 -140.128906 115.75 -133.953125 C 126.8125 -127.785156 135.523438 -119.203125 141.890625 -108.203125 C 148.265625 -97.210938 151.453125 -84.8125 151.453125 -71 C 151.453125 -57.1875 148.234375 -44.75 141.796875 -33.6875 C 135.367188 -22.625 126.65625 -14.007812 115.65625 -7.84375 C 104.65625 -1.675781 92.519531 1.40625 79.25 1.40625 Z M 79.25 -29.96875 C 90.507812 -29.96875 99.523438 -33.722656 106.296875 -41.234375 C 113.066406 -48.742188 116.453125 -58.664062 116.453125 -71 C 116.453125 -83.46875 113.066406 -93.421875 106.296875 -100.859375 C 99.523438 -108.304688 90.507812 -112.03125 79.25 -112.03125 C 67.851562 -112.03125 58.769531 -108.34375 52 -100.96875 C 45.226562 -93.59375 41.84375 -83.601562 41.84375 -71 C 41.84375 -58.53125 45.226562 -48.570312 52 -41.125 C 58.769531 -33.6875 67.851562 -29.96875 79.25 -29.96875 Z M 79.25 -29.96875 "/></g></g></g><g fill="#21dee8" fill-opacity="1"><g transform="translate(891.106085, 318.902067)"><g><path d="M 114.046875 -141.203125 L 114.046875 -113.640625 L 76.640625 -113.640625 L 76.640625 0 L 42.234375 0 L 42.234375 -113.640625 L 4.828125 -113.640625 L 4.828125 -141.203125 Z M 114.046875 -141.203125 "/></g></g></g><g fill="#21dee8" fill-opacity="1"><g transform="translate(1009.976729, 318.902067)"><g><path d="M 46.859375 -113.640625 L 46.859375 -85.078125 L 92.921875 -85.078125 L 92.921875 -58.53125 L 46.859375 -58.53125 L 46.859375 -27.5625 L 98.96875 -27.5625 L 98.96875 0 L 12.46875 0 L 12.46875 -141.203125 L 98.96875 -141.203125 L 98.96875 -113.640625 Z M 46.859375 -113.640625 "/></g></g></g><g fill="#21dee8" fill-opacity="1"><g transform="translate(1118.790638, 318.902067)"><g><path d="M 6.640625 -70.796875 C 6.640625 -84.742188 9.65625 -97.179688 15.6875 -108.109375 C 21.71875 -119.035156 30.128906 -127.550781 40.921875 -133.65625 C 51.722656 -139.757812 63.960938 -142.8125 77.640625 -142.8125 C 94.398438 -142.8125 108.742188 -138.382812 120.671875 -129.53125 C 132.609375 -120.6875 140.59375 -108.617188 144.625 -93.328125 L 106.8125 -93.328125 C 103.988281 -99.222656 99.992188 -103.710938 94.828125 -106.796875 C 89.671875 -109.890625 83.804688 -111.4375 77.234375 -111.4375 C 66.640625 -111.4375 58.054688 -107.75 51.484375 -100.375 C 44.921875 -93 41.640625 -83.140625 41.640625 -70.796875 C 41.640625 -58.460938 44.921875 -48.609375 51.484375 -41.234375 C 58.054688 -33.859375 66.640625 -30.171875 77.234375 -30.171875 C 83.804688 -30.171875 89.671875 -31.710938 94.828125 -34.796875 C 99.992188 -37.878906 103.988281 -42.375 106.8125 -48.28125 L 144.625 -48.28125 C 140.59375 -32.988281 132.609375 -20.953125 120.671875 -12.171875 C 108.742188 -3.390625 94.398438 1 77.640625 1 C 63.960938 1 51.722656 -2.046875 40.921875 -8.140625 C 30.128906 -14.242188 21.71875 -22.726562 15.6875 -33.59375 C 9.65625 -44.457031 6.640625 -56.859375 6.640625 -70.796875 Z M 6.640625 -70.796875 "/></g></g></g><g fill="#21dee8" fill-opacity="1"><g transform="translate(1272.055321, 318.902067)"><g><path d="M 134.765625 -141.203125 L 134.765625 0 L 100.375 0 L 100.375 -58.125 L 46.859375 -58.125 L 46.859375 0 L 12.46875 0 L 12.46875 -141.203125 L 46.859375 -141.203125 L 46.859375 -85.890625 L 100.375 -85.890625 L 100.375 -141.203125 Z M 134.765625 -141.203125 "/></g></g></g></svg>